# xmcd
#
# Track frame offsets:
#	150
#	7318
#	13543
#	22678
#	27943
#	34788
#	42315
#	48305
#	53618
#	61785
#	67405
#	72610
#
# Disc length: 1038 seconds
#
# Revision: 1
# Processed by: cddbd v1.5PL3 Copyright (c) Steve Scherf et al.
# Submitted via: CDex 1.50Beta5
#
DISCID=9f040c0c
DTITLE=浅野ななみ - 浅野ななみのちっちゃなあそびうた?
DYEAR=1900
DGENRE=
TTITLE0=てとて
TTITLE1=ハナハナあそび
TTITLE2=カエルさんカタツムリさん
TTITLE3=はだんかんぼ
TTITLE4=ひっつきむしピョン
TTITLE5=げんきだよ
TTITLE6=おともだちランランラン
TTITLE7=りんごちゃん
TTITLE8=のりもの　だいすき
TTITLE9=ドロロン・ロック
TTITLE10=まねっこ　ねこちゃん
TTITLE11=つくしんぼ　かくれんぼ
EXTD=
EXTT0=
EXTT1=
EXTT2=
EXTT3=
EXTT4=
EXTT5=
EXTT6=
EXTT7=
EXTT8=
EXTT9=
EXTT10=
EXTT11=
PLAYORDER=
